<?xml version="1.0" standalone="no"?>
<!DOCTYPE svg PUBLIC "-//W3C//DTD SVG 20010904//EN"
 "http://www.w3.org/TR/2001/REC-SVG-20010904/DTD/svg10.dtd">
<svg version="1.0" xmlns="http://www.w3.org/2000/svg"
 width="700.000000pt" height="700.000000pt" viewBox="0 0 700.000000 700.000000"
 preserveAspectRatio="xMidYMid meet">
<metadata>
Created by potrace 1.14, written by Peter Selinger 2001-2017
</metadata>
<g transform="translate(0.000000,700.000000) scale(0.100000,-0.100000)"
fill="#000000" stroke="none">
<path d="M3278 6995 c-1 -1 -42 -5 -89 -9 -47 -4 -96 -9 -109 -11 -12 -2 -48
-7 -79 -11 -31 -3 -65 -8 -76 -10 -11 -2 -45 -8 -75 -14 -81 -15 -84 -16 -215
-48 -163 -41 -358 -106 -462 -153 -24 -10 -45 -19 -48 -19 -3 0 -72 -32 -153
-71 -152 -74 -352 -190 -453 -262 -31 -23 -67 -49 -79 -57 -45 -30 -187 -145
-265 -214 -242 -214 -475 -491 -650 -771 -67 -107 -207 -374 -235 -445 -7 -19
-19 -48 -26 -65 -108 -248 -215 -660 -240 -920 -2 -22 -7 -76 -11 -120 -15
-153 -8 -601 11 -702 2 -10 7 -43 10 -73 7 -62 12 -94 26 -165 6 -27 12 -59
14 -71 16 -84 63 -259 97 -364 203 -620 580 -1179 1074 -1593 33 -27 62 -53
65 -56 8 -11 180 -135 260 -188 234 -156 544 -308 811 -397 96 -32 304 -90
354 -99 11 -2 31 -6 45 -10 64 -14 148 -29 250 -43 19 -2 49 -6 65 -9 153 -23
715 -24 787 -1 7 3 41 7 75 11 35 3 68 8 75 10 7 2 31 6 53 9 109 13 339 69
514 126 204 66 528 213 647 292 23 16 45 28 48 28 9 0 160 99 251 164 238 171
518 439 700 671 280 358 483 750 609 1180 26 89 65 240 72 283 2 15 9 50 14
77 15 77 19 106 26 165 3 30 7 66 10 80 23 130 23 633 0 770 -4 21 -12 80 -22
160 -8 68 -51 264 -84 382 -83 302 -183 540 -358 848 -29 51 -180 279 -196
296 -6 7 -20 24 -31 40 -129 182 -460 515 -650 655 -33 24 -62 47 -65 50 -11
12 -199 138 -280 186 -144 86 -336 180 -515 252 -11 5 -33 14 -50 21 -141 57
-514 155 -665 175 -19 3 -46 7 -60 10 -13 2 -52 7 -86 11 -33 3 -74 8 -90 10
-33 5 -540 14 -546 9z"/>
</g>
</svg>
