<?xml version="1.0" encoding="UTF-8" standalone="no"?>
<!DOCTYPE svg PUBLIC "-//W3C//DTD SVG 1.1//EN" "http://www.w3.org/Graphics/SVG/1.1/DTD/svg11.dtd">
<svg width="100%" height="100%" viewBox="0 0 606 606" version="1.1" xmlns="http://www.w3.org/2000/svg" xmlns:xlink="http://www.w3.org/1999/xlink" xml:space="preserve" xmlns:serif="http://www.serif.com/" style="fill-rule:evenodd;clip-rule:evenodd;stroke-linejoin:round;stroke-miterlimit:2;">
    <rect x="0" y="0" width="606" height="606" style="fill-rule:nonzero;"/>
    <path d="M348,137C348.639,124.655 343.828,120.007 340.903,109C338.944,101.631 341.317,83.766 342.373,76C342.863,72.396 347.53,66.89 345.695,63.424C343.433,59.15 338.376,63.164 337.297,66.074C334.593,73.368 335.492,81.599 333.431,89C327.794,109.243 317.888,131.015 348,137M344.817,72.408C342.385,78.804 340.323,98.34 342.444,108.885C344.74,120.301 351.38,124.891 349,138C376.706,144.405 351.791,103.414 348.709,91.219C348.861,83.869 350.265,85.453 344.817,72.408Z" style="fill:rgb(33,173,204);fill-rule:nonzero;"/>
    <path d="M172,82C174.656,82.996 177.166,82.984 180,83C177.344,82.004 174.834,82.016 172,82Z" style="fill:rgb(175,34,13);fill-rule:nonzero;"/>
    <path d="M222,214C222,214 265.013,166.304 282.413,139C285.806,133.675 294.823,111.724 301.145,110.867C304.873,110.362 308.712,115.718 311,118C317.873,124.856 324.998,131.243 333,136.776C350.891,149.148 373.648,151.957 395,152C392.389,164.308 386.674,175.888 379.219,186C372.107,195.645 362.567,200.582 368,213C391.059,195.276 403,162.992 403,135C392.911,136.375 384.185,136.981 374,136.104C369.588,135.725 365.053,134.282 362,138L367,140C348.434,145.04 329.854,130.262 319,117L325,118C324.569,109.765 306.247,90.367 297.375,96.848C291.045,101.472 288.74,111.23 285.666,118C280.487,129.407 273.605,140.59 266.665,151C245.637,182.543 214.599,215.394 185,239C192.33,228.15 202.865,221.114 211.99,211.99C219.186,204.794 226.192,197.288 233.055,189.649C240.067,181.844 246.931,173.898 253.695,166C270.067,146.884 280.319,124.012 292,102C273.328,102.257 254.013,110.308 235,105.173C213.731,99.43 188.329,74.755 165,83.845C153.278,88.412 133.261,112.24 129.15,124C126.13,132.638 126.401,142.251 123.498,151C121.235,157.818 111.865,168.987 115.721,176.588C120.365,185.742 140.825,169.641 144.773,166.098C149.472,161.881 151.843,155.735 156,151C152.957,147.295 149.614,144.057 147,140C151.122,143.906 155.378,147.699 160,151C157.691,141.752 152.531,133.506 151,124C154.724,132.595 158.996,153.155 168.259,157.283C174.241,159.948 184.526,158 191,158C195.309,158 204.538,159.736 208.057,156.85C212.065,153.563 212.573,143.711 214.476,139C218.858,128.147 224.849,118.395 233,110C224.203,126.518 214.977,139.12 211,158C218.531,157.017 227.143,160.281 234,158.929C237.881,158.163 241.39,154.655 245,153C238.416,176.198 223.264,204.469 201,216L203,204C198.813,201.001 194.8,197.927 190,196C189.343,218.593 167.164,242.491 171.741,265C174.926,280.663 198.58,280.734 209.875,273.91C215.402,270.571 219.973,261.94 222,256C215.206,258.872 191.101,270.841 184.983,263.577C181.061,258.921 185.099,252.037 187.954,248C196.174,236.378 206.688,226.047 218.183,217.686L222,214Z" style="fill:rgb(153,0,27);fill-rule:nonzero;"/>
    <path d="M229.538,215.004C220.309,212.92 219.611,217.695 219.611,217.695C221.174,238.642 265.244,229.914 278,225C265.156,238.009 238.724,230.381 223,229C226.575,243.768 256.268,242 268,242L268,244C255.283,244 241.136,238.309 229.071,239.105C224.82,239.386 220.133,248.702 225.413,250.441C231.592,252.476 237.437,241.602 246,245.089C255.619,249.006 256.301,260.979 264.267,265.48C281.562,275.251 317.614,267.277 334,259.003C346.626,252.627 381.162,225.717 364,210C359.131,218.32 354.801,228.094 348,235C353.123,224.323 365.68,212.39 362,200L360,200C347.523,218.311 333.162,232.778 314,244C325.25,231.471 340.6,223.94 351.341,210C355.333,204.819 360.968,198.893 360,192C346.548,201.713 334.253,211.393 317,213C331.198,205.162 347.229,204.438 358.497,190.973C371.134,175.872 371.078,155.671 348,155C355.73,174.569 345.797,185.059 329,196.641C304.404,213.601 281.361,219 252,219C241.858,219 238.767,217.088 229.538,215.004Z" style="fill:rgb(169,0,255);fill-rule:nonzero;"/>
    <path d="M146,139L147,140L146,139Z" style="fill:rgb(51,48,135);fill-rule:nonzero;"/>
    <path d="M157,139L158,140L157,139M337,139L338,140L337,139M351,139L352,140L351,139M364,139L365,140L364,139Z" style="fill:rgb(175,34,13);fill-rule:nonzero;"/>
    <path d="M147,140L148,141L147,140Z" style="fill:rgb(51,48,135);fill-rule:nonzero;"/>
    <path d="M308.156,152.845C301.217,155.939 304.087,167.042 306.914,172C312.848,182.406 325.165,189.897 336.969,184.026C344.623,180.22 346.088,169.754 341.135,163.126C335.553,155.656 317.222,148.803 308.156,152.845Z" style="fill:rgb(255,227,0);fill-rule:nonzero;"/>
    <path d="M153,156C168.222,174.432 202.926,160.308 219,178L211,174C214.975,195.919 242.859,180.562 238.392,166.228C236.568,160.373 226.021,159.082 221,159.011C204.792,158.782 188.443,161.137 172,159.927C165.032,159.414 160.237,154.253 153,156Z" style="fill:rgb(33,173,204);fill-rule:nonzero;"/>
    <path d="M282.003,158.786C262.162,165.523 257.466,220.725 286,210.843C301.576,205.448 301.717,186.25 298.056,173C295.996,165.543 291.475,155.57 282.003,158.786Z" style="fill:rgb(255,227,0);fill-rule:nonzero;"/>
    <path d="M393,158L394,159L393,158M119,159L120,160L119,159M232,159L233,160L232,159M268,159L269,160L268,159M118,161L119,162L118,161M259,161L260,162L259,161M392,161L393,162L392,161M400,161L401,162L400,161M258,162L259,163L258,162M147,163L148,164L147,163M255,163L256,164L255,163M265,163L266,164L265,163Z" style="fill:rgb(175,34,13);fill-rule:nonzero;"/>
    <path d="M315.416,164.161C308.216,168.937 320.823,182.428 327.468,177.839C334.473,173.003 322.042,159.765 315.416,164.161Z" style="fill-rule:nonzero;"/>
    <path d="M241,164L242,165L241,164M391,164L392,165L391,164M399,164L400,165L399,164M145,165L146,166L145,165M116,166L117,167L116,166Z" style="fill:rgb(175,34,13);fill-rule:nonzero;"/>
    <path d="M172,166.583C180.844,179.524 185.656,191.747 200,200.1C203.263,202 209.591,206.556 213.507,204.705C218.801,202.203 223.514,193.053 226,188C204.448,182.103 214.415,175.1 206.618,172.785C197.709,170.14 181.359,168.077 172,166.583Z" style="fill:rgb(33,173,204);fill-rule:nonzero;"/>
    <path d="M287.027,177.251C279.152,180.523 277.314,202.065 287.883,198.114C295.908,195.113 297.001,173.107 287.027,177.251Z" style="fill-rule:nonzero;"/>
    <path d="M232,216L233,217L232,216M360,216L361,217L360,216M217,217L218,218L217,217M235,217L236,218L235,217M204,218L205,219L204,218M216,218L217,219L216,218M239,218L242,219L239,218M203,219L204,220L203,219M184,310C192.144,310.111 204.365,310.982 211,316C201.232,313.948 192.015,312 182,312C191.466,321.063 202.008,326.021 209,338C197.56,327.101 183.868,305.876 165,318C160.403,309.113 152.368,310.751 144,313C152.527,324.809 159.678,333.947 161,349L159,349C158.352,326.706 138.161,300.106 115,316C124.162,329.873 142.606,322.811 147.821,342C152.109,357.779 151.445,378.306 147.366,394C145.898,399.65 143.345,408.092 137.874,411.181C133.419,413.698 129.397,408.434 127.477,404.999C122.517,396.124 120.138,383.069 120,373C116.689,374.444 113.575,375.463 110,376C111.875,389.755 116.315,413.08 129.118,421.128C148.733,433.458 158.357,399.138 159,387C161.232,394.381 158.022,403.739 156,411C169.361,408.769 175.366,394.538 185.003,386.364C192.325,380.154 203.327,377.95 209.307,370.929C230.052,346.574 240.27,311.7 262,289C248.905,319.561 224.462,343.823 209.511,373C207.048,377.806 207.726,383.864 205.882,389C201.075,402.388 195.187,415.908 189.56,429C184.749,440.193 179.359,451.195 173.731,462C172.107,465.118 167.214,470.77 168.808,474.528C170.161,477.718 181.141,476.132 184.568,478.396C199.964,488.569 214.59,504.323 233,509C233.576,488.782 239.944,469.127 241,449L243,449C240.986,464.355 237.233,479.543 236.032,495C235.652,499.896 233.403,507.216 236.15,511.713C242.028,521.339 265.264,520.988 275,521C303.325,521.034 326.914,520.94 354,512.729C363.901,509.728 377.236,505.712 384.56,497.969C388.408,493.903 384.561,485.861 383.864,481C382.308,470.153 377.531,447.463 384,438C380.696,456.258 385.524,476.836 388,495C402.243,488.663 419.654,478.858 432,469.317C435.969,466.249 442.741,462.122 444.137,456.997C446.129,449.685 435.167,438.846 432.702,432C425.267,411.345 423.127,389.677 420,368C425.175,380.428 426.201,399.434 445,396C448.247,403.319 458.57,401.705 463.997,397.538C474.731,389.296 493.495,356.896 476,349C473.798,361.089 473.398,374.932 467.55,385.999C465.913,389.098 461.774,395.87 457.346,394.389C449.555,391.782 450,369.407 450,363C450,351.311 452.205,317.721 465.071,312.295C469.356,310.488 478.905,313.999 484,314C481.831,303.427 470.314,297.219 461.028,304.402C453.175,310.476 450.747,320.352 447,329C447.102,322.065 458.704,308.471 456.556,303.521C454.988,299.907 446.905,300.601 444.01,301.717C435.947,304.826 430.343,317.284 428,325C428.309,315.234 436.956,308.285 441,300C430.768,298.94 421.246,284.643 417.13,276C408.554,257.994 398.767,227.865 378.003,220.592C368.376,217.22 367.32,230.737 363.281,237C354.696,250.31 342.041,260.199 327,265.229C310.79,270.65 281.48,277.169 265.145,269.342C254.651,264.313 256.252,245.553 241,246.345C231.815,246.822 226.056,255.289 221.158,262C209.239,278.331 195.709,293.607 184,310M344,220L345,221L344,220M183,221L184,222L183,221M203,221L204,222L203,221M202,222L203,223L202,222M219,222L220,223L219,222M198,223L199,224L198,223M197,224L198,225L197,224M367,224L368,225L367,224M221,225L222,226L221,225M181,226L182,227L181,226M207,226L208,227L207,226M206,227L207,228L206,227M276,227L277,228L276,227M337,227L338,228L337,227M205,228L206,229L205,228M336,228L337,229L336,228M180,229L181,230L180,229M331,230L332,231L331,230M179,231L180,232L179,231M190,231L191,232L190,231M189,232L190,233L189,232M178,234L179,235L178,234M349,234L350,235L349,234M226,235L227,236L226,235M361,235L362,236L361,235M188,236L189,237L188,236M228,236L229,237L228,236Z" style="fill:rgb(153,0,27);fill-rule:nonzero;"/>
    <path d="M373,236C377.177,257.02 394.037,279.067 402.561,299C411.988,321.047 414.447,343.68 419,367C421.406,359.006 416.695,346.333 415.698,338C412.615,312.217 400.756,288.016 389.249,265C384.598,255.697 380.206,243.533 373,236Z" style="fill-rule:nonzero;"/>
    <path d="M332,266.578C312.168,271.181 302.937,294.286 299.4,312C290.905,354.546 310.43,442.745 370,428.556C389.804,423.84 396.031,397.478 398.169,380C403.067,339.971 392.86,252.454 332,266.578Z" style="fill-rule:nonzero;"/>
    <path d="M340,279.789C329.301,283.358 322.402,296.088 318.881,306C309.976,331.064 314.724,363.714 326.799,387C333.355,399.643 347.447,417.493 363.997,411.593C373.504,408.204 379.019,393.941 381.557,385C389.065,358.553 385.027,328.317 372.748,304C367.27,293.151 354.783,274.857 340,279.789Z" style="fill:rgb(153,0,27);fill-rule:nonzero;"/>
    <path d="M461,315C457.962,325.751 454.461,335.858 453,347C459.56,347 470.755,343.856 476.695,346.455C484.12,349.704 490.293,359.279 496.142,364.744C501.067,369.347 507.478,371.063 513,374.659C520.42,379.491 527.269,387.349 536,389.935C543.546,392.171 556.991,388.699 565,388L564,382C572.101,390.014 591.873,384.834 586.871,370.997C583.508,361.692 574.267,361.536 567,357.435C554.046,350.124 544.531,341.816 534.373,331.228C530.356,327.041 526.564,326.081 521,327C525.331,323.18 526.918,317.326 531.267,313.72C536.954,309.003 562.308,308.204 558.995,295.385C556.831,287.007 535.692,294.912 531,296.173C521.684,298.677 510.98,294.572 502.028,298.589C494.778,301.842 495.092,309.734 489.51,313.965C483.273,318.691 468.185,316.304 461,315M43.029,386.032C38.951,389.603 33.46,392.624 28,393C28.024,404.631 33.926,413.281 45,404C43.245,414.527 52.946,420.624 60.542,411.854C66.484,404.994 61.839,399.549 63,392L65,400C72.028,395.886 72.647,390.078 78,385L76,391C85.203,389.171 92.787,382.87 101,378.66C117.288,370.312 131.349,369.846 125,347C128.453,350.965 128.854,355.881 129,361L148,363C147.863,352.99 147.761,337.143 137.969,331.477C132.909,328.549 125.944,329.81 121.381,326.85C116.115,323.435 110.572,314.806 105.227,310.309C99.216,305.25 98.926,291.887 89.011,293.247C71.995,295.582 83.583,319.287 96,321L91,322C91.035,339.364 98.058,346 115,346C98.369,354.276 89.08,335.904 89,322C68.365,334.326 48.274,351.763 32.169,370.003C21.051,382.595 22.323,397.888 40.973,386.777L47.306,378.504L43.029,386.032Z" style="fill:rgb(33,173,204);fill-rule:nonzero;"/>
    <path d="M115,317L116,318L115,317M116,318C120.894,331.318 130.435,325.307 139.854,333.458C147.489,340.065 147.733,353.639 148,363L129,361C128.933,356.112 129.091,350.242 125,347C127.623,359.49 126.995,368.4 114,374C116.531,374.67 117.631,374.165 120,373C120.059,383.284 122.352,395.72 126.963,404.999C128.858,408.81 133.005,414.168 137.874,411.809C143.768,408.952 146.17,399.773 147.62,394C151.671,377.875 152.87,353.813 146.871,338C141.505,323.858 125.601,326.665 116,318M166,318C172.876,340.069 180,357.193 180,381C183.28,376.201 181.269,370.465 181.017,365C180.329,350.083 176.69,329.175 166,318M479,333C489.707,320.335 491.282,322.531 506,327C495.617,317.431 482.439,317.319 479,333M426,325L425,330C426.209,328.06 426.506,327.22 426,325M424.333,331.667C424.278,331.722 424.222,332.778 424.667,332.333C424.722,332.278 424.778,331.222 424.333,331.667M423,334L423,337C423.696,335.446 423.696,335.554 423,334M516,367C524.569,362.695 532.918,352.616 537,344C529.458,348.178 520.508,359.648 516,367M75,346C75.612,349.8 76.807,353.346 78,357C69.294,358.644 50.346,369.872 47,378C56.979,370.205 67.192,362.368 79,358C81.294,369.561 80.508,372.202 68,376L68,370C63.254,376.825 61.093,382.507 54,388C69.754,386.136 73.26,366.051 91,376C87.437,368.7 80.813,350.943 75,346M537,355C549.707,371.541 569.665,371.442 586.314,380.243C579.686,372.268 570.514,373.097 562,369.868C552.437,366.242 545.921,359.408 537,355M527,367C538.992,378.094 551.103,374.316 564,382C556.661,375.03 546.866,375.825 541.546,373.68C535.7,371.324 534.282,370.642 527,367M46,379L47,380L46,379M43,383C43,383 42.828,384.972 43,383M439,385C439.778,388.918 441.452,392.335 443,396C443.459,391.965 441.416,388.16 439,385M49.103,396.188C50.849,393.984 53.355,390.093 54.436,388.909L51.979,389.031L46.788,397.285L44.197,404.884L49.103,396.188Z" style="fill-rule:nonzero;"/>
</svg>
