<svg width="42" height="30" viewBox="0 0 42 30" fill="none" xmlns="http://www.w3.org/2000/svg">
<path d="M31.6 0.687994C33.264 0.687994 34.736 1.008 36.016 1.648C37.36 2.224 38.416 3.088 39.184 4.23999C39.888 5.136 40.464 6.384 40.912 7.984C41.36 9.584 41.584 11.376 41.584 13.36C41.584 16.56 40.752 19.6 39.088 22.48C37.424 25.296 34.864 27.504 31.408 29.104L30.544 27.376C32.208 26.608 33.712 25.52 35.056 24.112C36.4 22.64 37.296 21.104 37.744 19.504C38.32 17.712 38.416 15.952 38.032 14.224C36.368 16.208 34.032 17.2 31.024 17.2C28.464 17.2 26.416 16.496 24.88 15.088C23.344 13.616 22.576 11.568 22.576 8.944C22.576 6.448 23.408 4.464 25.072 2.992C26.736 1.456 28.912 0.687994 31.6 0.687994ZM9.52 0.687994C11.184 0.687994 12.656 1.008 13.936 1.648C15.28 2.224 16.336 3.088 17.104 4.23999C17.808 5.136 18.384 6.384 18.832 7.984C19.28 9.584 19.504 11.376 19.504 13.36C19.504 16.56 18.672 19.6 17.008 22.48C15.344 25.296 12.784 27.504 9.328 29.104L8.464 27.376C10.128 26.608 11.632 25.52 12.976 24.112C14.32 22.64 15.216 21.104 15.664 19.504C16.24 17.712 16.336 15.952 15.952 14.224C14.288 16.208 11.952 17.2 8.944 17.2C6.384 17.2 4.336 16.496 2.8 15.088C1.264 13.616 0.496 11.568 0.496 8.944C0.496 6.448 1.328 4.464 2.992 2.992C4.656 1.456 6.832 0.687994 9.52 0.687994Z" fill="url(#paint0_linear_203_1205)"/>
<defs>
<linearGradient id="paint0_linear_203_1205" x1="-1.54277" y1="-19.837" x2="25.2454" y2="-19.6788" gradientUnits="userSpaceOnUse">
<stop stop-color="#2C5E14"/>
<stop offset="1" stop-color="#A8CF95"/>
</linearGradient>
</defs>
</svg>
