<svg width="42" height="30" viewBox="0 0 42 30" fill="none" xmlns="http://www.w3.org/2000/svg">
<path d="M10.536 29.336C8.872 29.336 7.368 29.048 6.024 28.472C4.744 27.832 3.72 26.936 2.952 25.784C2.312 24.888 1.736 23.64 1.224 22.04C0.776 20.44 0.552 18.648 0.552 16.664C0.552 13.464 1.384 10.456 3.048 7.64C4.712 4.76 7.272 2.52 10.728 0.919998L11.592 2.648C9.928 3.416 8.424 4.536 7.08 6.008C5.8 7.416 4.904 8.92 4.392 10.52C3.816 12.312 3.72 14.072 4.104 15.8C5.768 13.816 8.104 12.824 11.112 12.824C13.672 12.824 15.72 13.56 17.256 15.032C18.792 16.44 19.56 18.456 19.56 21.08C19.56 23.576 18.728 25.592 17.064 27.128C15.4 28.6 13.224 29.336 10.536 29.336ZM32.616 29.336C30.952 29.336 29.448 29.048 28.104 28.472C26.824 27.832 25.8 26.936 25.032 25.784C24.392 24.888 23.816 23.64 23.304 22.04C22.856 20.44 22.632 18.648 22.632 16.664C22.632 13.464 23.464 10.456 25.128 7.64C26.792 4.76 29.352 2.52 32.808 0.919998L33.672 2.648C32.008 3.416 30.504 4.536 29.16 6.008C27.88 7.416 26.984 8.92 26.472 10.52C25.896 12.312 25.8 14.072 26.184 15.8C27.848 13.816 30.184 12.824 33.192 12.824C35.752 12.824 37.8 13.56 39.336 15.032C40.872 16.44 41.64 18.456 41.64 21.08C41.64 23.576 40.808 25.592 39.144 27.128C37.48 28.6 35.304 29.336 32.616 29.336Z" fill="url(#paint0_linear_203_1202)"/>
<defs>
<linearGradient id="paint0_linear_203_1202" x1="-2.36578" y1="-20.6917" x2="34.79" y2="-20.3415" gradientUnits="userSpaceOnUse">
<stop stop-color="#2C5E14"/>
<stop offset="1" stop-color="#A8CF95"/>
</linearGradient>
</defs>
</svg>
